<!--
  ~ Copyright 2017 Banco Bilbao Vizcaya Argentaria, S.A.
  ~
  ~ Licensed under the Apache License, Version 2.0 (the "License");
  ~ you may not use this file except in compliance with the License.
  ~ You may obtain a copy of the License at
  ~
  ~     http://www.apache.org/licenses/LICENSE-2.0
  ~
  ~ Unless required by applicable law or agreed to in writing, software
  ~ distributed under the License is distributed on an "AS IS" BASIS,
  ~ WITHOUT WARRANTIES OR CONDITIONS OF ANY KIND, either express or implied.
  ~ See the License for the specific language governing permissions and
  ~ limitations under the License.
  -->

<svg xmlns="http://www.w3.org/2000/svg" xmlns:xlink="http://www.w3.org/1999/xlink" viewBox="0 0 900 900"><defs><style>.cls-1,.cls-10{stroke:#041836;stroke-miterlimit:10;}.cls-1{stroke-width:7.13px;fill:url(#Degradado_sin_nombre_203);}.cls-2{fill:url(#Degradado_sin_nombre_264);}.cls-3{fill:#041836;}.cls-4{fill:none;}.cls-5{fill:url(#Degradado_sin_nombre_261);}.cls-6{fill:#d4edfc;}.cls-7{fill:url(#Degradado_sin_nombre_197);}.cls-8{fill:url(#Degradado_sin_nombre_190);}.cls-9{fill:url(#Degradado_sin_nombre_142);}.cls-10{fill:#fff;stroke-width:4px;}.cls-11{fill:url(#Degradado_sin_nombre_194);}.cls-12{fill:url(#Degradado_sin_nombre_20);}.cls-13{fill:url(#Degradado_sin_nombre_262);}.cls-14{fill:#004481;}.cls-15{fill:url(#Degradado_sin_nombre_209);}.cls-16{fill:url(#Degradado_sin_nombre_238);}.cls-17{fill:url(#Degradado_sin_nombre_226);}.cls-18{fill:url(#Degradado_sin_nombre_107);}.cls-19{fill:url(#Degradado_sin_nombre_227);}.cls-20{fill:url(#Degradado_sin_nombre_220);}.cls-21{fill:url(#Degradado_sin_nombre_223);}</style><linearGradient id="Degradado_sin_nombre_203" x1="1365.83" y1="1416.36" x2="1597.88" y2="1139.82" gradientTransform="matrix(0.81, 0.78, -0.78, 0.81, 9.05, -1984.62)" gradientUnits="userSpaceOnUse"><stop offset="0" stop-color="#91d3ff"/><stop offset="1" stop-color="#fafdff"/></linearGradient><linearGradient id="Degradado_sin_nombre_264" x1="6.4" y1="184.74" x2="356.75" y2="184.74" gradientUnits="userSpaceOnUse"><stop offset="0" stop-color="#49a5e6"/><stop offset="1" stop-color="#1464a5"/></linearGradient><linearGradient id="Degradado_sin_nombre_261" x1="88.52" y1="143.77" x2="25.76" y2="252.47" gradientUnits="userSpaceOnUse"><stop offset="0" stop-color="#031126"/><stop offset="0.99" stop-color="#072146"/></linearGradient><linearGradient id="Degradado_sin_nombre_197" x1="187.92" y1="158.73" x2="187.92" y2="4.46" gradientUnits="userSpaceOnUse"><stop offset="0" stop-color="#001433"/><stop offset="0.45" stop-color="#041836"/><stop offset="1" stop-color="#0b356e"/></linearGradient><linearGradient id="Degradado_sin_nombre_190" x1="116.76" y1="418.29" x2="210.69" y2="160.24" gradientUnits="userSpaceOnUse"><stop offset="0" stop-color="#000c1f"/><stop offset="0.27" stop-color="#031633"/><stop offset="0.5" stop-color="#051c40"/><stop offset="0.69" stop-color="#051a39"/><stop offset="0.79" stop-color="#051833"/></linearGradient><linearGradient id="Degradado_sin_nombre_142" x1="276.92" y1="365.43" x2="276.92" y2="275.09" gradientUnits="userSpaceOnUse"><stop offset="0" stop-color="#020c1c"/><stop offset="1" stop-color="#072146"/></linearGradient><linearGradient id="Degradado_sin_nombre_194" x1="41.35" y1="284.44" x2="245.6" y2="248.43" gradientUnits="userSpaceOnUse"><stop offset="0" stop-color="#043263"/><stop offset="0.29" stop-color="#0a447b"/><stop offset="0.75" stop-color="#115b99"/><stop offset="1" stop-color="#1464a5"/></linearGradient><linearGradient id="Degradado_sin_nombre_20" x1="5.91" y1="179.3" x2="98.06" y2="179.3" gradientUnits="userSpaceOnUse"><stop offset="0" stop-color="#043263"/><stop offset="1" stop-color="#1464a5"/></linearGradient><linearGradient id="Degradado_sin_nombre_262" x1="118.29" y1="235.05" x2="158.82" y2="5.21" gradientUnits="userSpaceOnUse"><stop offset="0" stop-color="#042952"/><stop offset="0.35" stop-color="#043263"/><stop offset="0.55" stop-color="#084075"/><stop offset="0.94" stop-color="#1363a5"/><stop offset="1" stop-color="#1569ad"/></linearGradient><linearGradient id="Degradado_sin_nombre_209" x1="269.39" y1="362.48" x2="284.6" y2="276.24" gradientUnits="userSpaceOnUse"><stop offset="0" stop-color="#042952"/><stop offset="1" stop-color="#156bb0"/></linearGradient><linearGradient id="Degradado_sin_nombre_238" x1="264.84" y1="314.07" x2="295.51" y2="288.34" gradientUnits="userSpaceOnUse"><stop offset="0.23" stop-color="#031126"/><stop offset="0.74" stop-color="#08254f"/></linearGradient><linearGradient id="Degradado_sin_nombre_226" x1="193.17" y1="132.55" x2="360.45" y2="193.43" gradientUnits="userSpaceOnUse"><stop offset="0" stop-color="#d7f0ff"/><stop offset="0.84" stop-color="#49a5e6"/></linearGradient><linearGradient id="Degradado_sin_nombre_107" x1="348.29" y1="293.26" x2="407.75" y2="190.26" gradientUnits="userSpaceOnUse"><stop offset="0" stop-color="#d4edfc"/><stop offset="0.4" stop-color="#d0ebfb"/><stop offset="1" stop-color="#49a5e6"/></linearGradient><linearGradient id="Degradado_sin_nombre_227" x1="208.08" y1="434.67" x2="403.86" y2="238.89" gradientUnits="userSpaceOnUse"><stop offset="0" stop-color="#dcf1fc"/><stop offset="0.16" stop-color="#c2e4f8"/><stop offset="0.74" stop-color="#6bb7eb"/><stop offset="1" stop-color="#49a5e6"/></linearGradient><linearGradient id="Degradado_sin_nombre_220" x1="113.37" y1="127.19" x2="113.37" y2="87.39" gradientUnits="userSpaceOnUse"><stop offset="0" stop-color="#d4edfc"/><stop offset="0.74" stop-color="#5bbeff"/></linearGradient><linearGradient id="Degradado_sin_nombre_223" x1="136.53" y1="158.36" x2="152.62" y2="67.13" gradientUnits="userSpaceOnUse"><stop offset="0" stop-color="#d4edfc"/><stop offset="0.42" stop-color="#8cc8f1"/><stop offset="0.84" stop-color="#49a5e6"/></linearGradient><symbol id="logo" data-name="logo" viewBox="0 0 420.4 428.01"><circle class="cls-1" cx="211.58" cy="217.41" r="203.95" transform="matrix(0.72, -0.69, 0.69, 0.72, -91.64, 207.82)"/><path class="cls-2" d="M61.45,357.26a205.18,205.18,0,0,1,150.1-345,203.43,203.43,0,0,1,145.2,60.19Z"/><path class="cls-3" d="M211.57,15.79a200.95,200.95,0,0,1,140.08,56.6L122.94,293,61.61,352.16a201.61,201.61,0,0,1,150-336.37h0m0-7.13a208.07,208.07,0,0,0-144.9,58.5c-83,80-85.35,212.18-5.32,295.15L361.81,72.48A208.1,208.1,0,0,0,211.55,8.66Z"/><path class="cls-4" d="M93.53,229.9c.8-.28,1.6-.55,2.4-.82q1.05-3.31,2.3-6.58A52.91,52.91,0,0,1,93.53,229.9Z"/><path class="cls-4" d="M358.1,222.76c-8.73,8.42-11.33,19.11-11.08,31.28,10.29-4.72,22.51-9,27.74-14C391.76,223.64,378.6,203,358.1,222.76Z"/><path class="cls-4" d="M324.87,200.11c-.8.28-1.6.55-2.4.82q-1.05,3.31-2.3,6.57A52.91,52.91,0,0,1,324.87,200.11Z"/><path class="cls-4" d="M241.42,143.81c-2.92-17.42-10.62-35.34-24.48-49.71C212.73,89.74,204.24,83,193.48,77c-5.09,4.8-9.83,9.77-12.85,14.25-.41,16.1-6.2,35.78-12,41.4-18.13,17.49-48.36,25-64.94,21.4,2.28,20.74,4.28,41.93-1.78,59.93A123.29,123.29,0,0,1,127.93,178C163.35,143.89,205.71,143.33,241.42,143.81Z"/><path class="cls-4" d="M264.56,364.83l-.74.6a55.18,55.18,0,0,0,19.32-2.09A105,105,0,0,1,264.56,364.83Z"/><path class="cls-4" d="M237.77,338.76c.41-16.1,6.2-35.78,12-41.4,18.13-17.49,48.36-25,64.94-21.4-2.28-20.74-4.28-41.93,1.78-59.93A123.29,123.29,0,0,1,290.47,252c-35.41,34.16-77.78,34.72-113.48,34.23,2.92,17.42,10.62,35.34,24.48,49.71,4.2,4.36,12.69,11.13,23.45,17.1C230,348.2,234.75,343.24,237.77,338.76Z"/><path class="cls-4" d="M153.84,65.17l.74-.6a55.17,55.17,0,0,0-19.32,2.09A105,105,0,0,1,153.84,65.17Z"/><path class="cls-4" d="M297,66.77c-1.31-1.36-2.64-2.6-4-3.8a154.62,154.62,0,0,1,20.61,33.31C311.65,86.93,306.66,76.75,297,66.77Z"/><path class="cls-4" d="M121.37,363.23c1.31,1.36,2.64,2.6,4,3.8a154.62,154.62,0,0,1-20.61-33.31C106.75,343.08,111.74,353.26,121.37,363.23Z"/><path class="cls-4" d="M200.91,218.06A65.46,65.46,0,0,0,217.49,212,65.46,65.46,0,0,0,200.91,218.06Z"/><path class="cls-4" d="M60.3,207.24C69,198.82,71.63,188.13,71.38,176c-10.29,4.72-22.51,9-27.74,14C26.64,206.37,39.8,227,60.3,207.24Z"/><path class="cls-5" d="M93.53,229.9a52.88,52.88,0,0,0,4.7-7.39q1.65-4.3,3.65-8.52c6.06-18,4.06-39.19,1.78-59.93a22.66,22.66,0,0,1-6.06-2.15,79.65,79.65,0,0,1-12.86,16c-3,2.94-7.94,5.56-13.36,8,.25,12.17-2.35,22.86-11.08,31.28C39.8,227,26.64,206.37,43.64,190c5.24-5.05,17.45-9.29,27.74-14,5.43-2.49,10.32-5.11,13.36-8a79.65,79.65,0,0,0,12.86-16,12.85,12.85,0,0,1-3.13-2.3,13.66,13.66,0,0,1-2.53-3.85c-1.55,1.74-3.09,3.37-4.55,4.79-5.16,5-11.17,7-17.79,8.19-15.23,2.69-33.69.71-52.44,18.8-26.91,26-18.67,48.75.73,68.85,9.33,9.67,22.69,12.53,36.85,9.1,1.21-1.35,2.49-2.68,3.85-4A95.7,95.7,0,0,1,93.53,229.9Z"/><path class="cls-6" d="M320.17,207.5a57.71,57.71,0,0,0-3.65,8.52Q318.53,211.81,320.17,207.5Z"/><path class="cls-7" d="M305.56,132.21c-13.43,13-36.84,12-64.15,11.6-2.92-17.42-10.62-35.34-24.48-49.71C212.73,89.74,204.24,83,193.48,77c-11.23-6.23-24.95-11.58-38.9-12.43a55.17,55.17,0,0,0-19.32,2.09c-10.11,1.7-19,4.69-22.5,8.09-20.37,19.65-27.58,56.15-20.81,71-1.55,1.74-3.09,3.37-4.55,4.79-5.16,5-11.17,7-17.79,8.19-5.94-36.49-22.38-81.53,16.9-119.41C125.14,2.05,171.89-1.45,212.64,10.8c29.38,8.84,55.65,25.87,73.49,44.37,2.37,2.45,4.67,5.07,6.92,7.81a154.61,154.61,0,0,1,20.61,33.31C317.16,112.59,311.6,126.39,305.56,132.21Z"/><path class="cls-8" d="M133,374.14c-2.37-2.45-4.67-5.07-6.92-7.81-1.35-1.2-2.68-2.44-4-3.8-9.62-10-14.61-20.16-16.62-29.51-3.5-16.3,1.34-29.41,7.38-35.23,13.43-13,36.84-12,64.15-11.6,35.71.49,78.07-.08,113.48-34.23A123.29,123.29,0,0,0,316.52,216a57.71,57.71,0,0,1,3.65-8.52q1.25-3.27,2.3-6.57c-35.85,11.82-75,4.05-105,11a65.46,65.46,0,0,1-16.58,6.11c-30,7-69.14-.79-105,11-.8.26-1.6.53-2.4.82a95.7,95.7,0,0,0-34.94,21.6c-1.36,1.31-2.64,2.65-3.85,4-42.5,47.07,3.5,112.7,29.6,139.76,34.84,36.12,89.13,39.55,121.42,24C176.38,410.37,150.83,392.64,133,374.14Z"/><path class="cls-9" d="M326.45,284.25a13.66,13.66,0,0,0-2.53-3.85,12.85,12.85,0,0,0-3.13-2.3,22.66,22.66,0,0,0-6.06-2.15c-16.57-3.57-46.81,3.91-64.94,21.4-5.83,5.62-11.62,25.3-12,41.4-3,4.48-7.76,9.44-12.85,14.25,11.23,6.23,24.95,11.58,38.9,12.43l.74-.6a105,105,0,0,0,18.59-1.49c10.11-1.7,19-4.69,22.5-8.09C326,335.6,333.22,299.11,326.45,284.25Z"/><path class="cls-10" d="M331.9,390.69C293.26,428,246.51,431.46,205.76,419.2c-29.38-8.84-55.65-25.87-73.49-44.37-2.37-2.45-4.67-5.07-6.92-7.81a154.62,154.62,0,0,1-20.61-33.31c-3.5-16.3,2.06-30.1,8.1-35.92,13.43-13,36.84-12,64.15-11.6,2.92,17.42,10.62,35.34,24.48,49.71,4.2,4.36,12.69,11.13,23.45,17.1,11.23,6.23,24.95,11.58,38.9,12.43a55.18,55.18,0,0,0,19.32-2.09c10.11-1.7,19-4.69,22.5-8.09,20.37-19.65,27.58-56.15,20.81-71,1.55-1.74,3.09-3.37,4.55-4.79,5.16-5,11.17-7,17.79-8.19C354.74,307.77,371.17,352.8,331.9,390.69ZM98.23,222.5q1.65-4.3,3.65-8.52h0A123.28,123.28,0,0,1,127.93,178c35.41-34.16,77.78-34.72,113.48-34.23,27.3.37,50.72,1.36,64.15-11.6,6-5.82,10.88-18.93,7.38-35.23-2-9.36-7-19.54-16.62-29.51C295,66.11,294.39,64.17,293,63c-2.24-2.74-4.55-5.35-6.92-7.81C268.29,36.68,242,19.64,212.64,10.8c32.29-15.59,86.58-12.16,121.42,24,26.1,27.06,72.1,92.68,29.6,139.76h0c-1.21,1.34-2.49,2.68-3.85,4a95.7,95.7,0,0,1-34.94,21.6h0c-.8.28-1.6.55-2.4.82-35.85,11.82-75,4.05-105,11a65.46,65.46,0,0,0-16.58,6.11c-30,7-69.14-.79-105,11q1.05-3.31,2.3-6.58"/><path class="cls-10" d="M180.63,91.25h0c3-4.48,7.76-9.44,12.85-14.25-11.23-6.23-24.95-11.58-38.9-12.43l-.74.6h0a105,105,0,0,0-18.59,1.49c-10.11,1.7-19,4.69-22.5,8.09-20.37,19.65-27.58,56.15-20.81,71a13.66,13.66,0,0,0,2.53,3.85,12.85,12.85,0,0,0,3.13,2.3,22.66,22.66,0,0,0,6.06,2.15c16.57,3.57,46.81-3.91,64.94-21.4C174.43,127,180.22,107.35,180.63,91.25Z"/><path class="cls-10" d="M407.15,191.2a98,98,0,0,0-6.63-7.58c-9.33-9.67-22.69-12.53-36.85-9.1-1.21,1.34-2.49,2.68-3.85,4a95.7,95.7,0,0,1-34.94,21.6,52.88,52.88,0,0,0-4.7,7.39q-1.65,4.3-3.65,8.52c-6.06,18-4.06,39.19-1.78,59.93a22.66,22.66,0,0,1,6.06,2.15,79.65,79.65,0,0,1,12.86-16c3-2.94,7.94-5.56,13.36-8-.25-12.17,2.35-22.86,11.08-31.28,9.87-9.52,18-9.66,21.94-5.42,4.22,4.56,3.53,14.19-5.28,22.69-5.24,5.05-17.45,9.29-27.74,14-5.43,2.49-10.32,5.11-13.36,8a79.65,79.65,0,0,0-12.86,16,12.85,12.85,0,0,1,3.13,2.3,13.66,13.66,0,0,1,2.53,3.85c1.55-1.74,3.09-3.37,4.55-4.79,5.16-5,11.17-7,17.79-8.19h0c15.23-2.69,33.69-.71,52.44-18.8C424.83,229.73,421.41,209.41,407.15,191.2Z"/><path class="cls-11" d="M220.89,218.06a109.88,109.88,0,0,1-28.27,7.22c-14.93,1.52-76.34,3.59-89,6.56-32.45,7.63-51.49,37-56.1,52.42-4.67,15.58,1,40.58,1,40.58s-15-65.67,68-82.67c19.77-4,50.44-5.08,76.82-8.62,20.8-2.79,38.85-7.47,46.52-17.53C233.93,216,220.89,218.06,220.89,218.06Z"/><path class="cls-12" d="M95.88,152.42c-4.33,7.08-27.58,11.64-48.66,14.75-16.88,2.49-40.66,25.61-41.31,39,1.59-6.53,22.12-31.34,49-34.67,14.5-1.79,36.58-8.33,43.11-17.58C96,153.18,96.84,153.12,95.88,152.42Z"/><path class="cls-13" d="M35.84,217.34s36.55,12.56,41.65-43.48a65.7,65.7,0,0,0,10.24-4.19C89.48,181.5,84.91,205,73.22,216,64.55,224.17,41.8,225.29,35.84,217.34Zm39.6-60c2.95,0,7.78-1.53,10.95-3.2-1.5-4.33-16.72-49.33-4.72-78.19,11.56-27.81,47.89-61.14,91.89-61.14,37.7,0,53.17,5.83,67.33,10.33-7.83-5.5-50.3-18-78.67-15.49C133,12.26,88.22,31.5,72.4,69.5,59,101.74,74.26,154.87,75.44,157.37Z"/><path class="cls-14" d="M115.39,173.52"/><path class="cls-15" d="M285.22,314.47c.93-1.07,7.11-.17,9-2.63,6.13-8,12-10.34,17.83-16.17,7-7,9.38-9.24,7-11.5-1.86-1.77-8.07-3.8-9.75-3.25C284.55,278,256,297.86,252.39,306c-5.78,13.05-8.33,35-8.33,35l-10.17,12.5,12.87,5a132.85,132.85,0,0,0,10.39-8.44c3.3-3.3-.12-14.61,1.65-19.09,3-7.54,6.55-13.45,10.61-13.08,4.27.38,9.58,1.89,12.41,1.86S283.19,316.82,285.22,314.47Z"/><path class="cls-16" d="M273.64,292.19c5.75,2,14.94,5.19,14.42,6.06l11.13-5.52c-4.42,8.63-15.62,11.19-16.27,21.07l-23.53-6.22,8.34-1.69L272.46,295l-1.28-.83A4.83,4.83,0,0,1,273.64,292.19Z"/><path class="cls-17" d="M199.3,217.67s14.38-7.92,29.37-8.53c26.63-1.09,71-3.09,88.63-8.72,37.59-12,54.75-36.05,59.25-51.5,7-24-3.15-49.15-3.15-49.15s21.15,60.4-71.85,82.4c-19.63,4.64-50,4.13-76.33,7.67-20.8,2.79-53.67,12.33-63.67,29.58C168.05,219.67,199.3,217.67,199.3,217.67Z"/><path class="cls-18" d="M326.84,280.88c9.94-10.08,19-11.93,37.79-13.46,18.44-1.5,43.42-15.25,50.67-39.75,4.72-15.94-4.53-30.13-15.5-42,7,9.75,13,22.51,9.75,36.5-4.75,20.5-32,40-48,42.5-9.4,1.47-24.75,2.5-35.92,14.63A14.64,14.64,0,0,1,326.84,280.88Z"/><path class="cls-19" d="M378.89,213.92c-3-1.58-11-1.68-19.17,4.75-5.58,4.42-12.83,11.5-14.72,34.11a62.45,62.45,0,0,0-11.82,7c-1.76-11.83,2.54-32.19,14.89-42.43C357.39,209.67,373.72,210.34,378.89,213.92Zm-31.78,59.75a31.64,31.64,0,0,0-10.32,3.85c1.5,4.33,14.1,47.65,3.43,77.65-10.09,28.38-46.67,59.33-92,61.67-37.65,1.94-53.58-5.27-67.74-9.77,7.83,5.5,50.34,20.24,78.59,16.67,29.48-3.73,53.47-14.35,77.15-39.9C365.89,351.84,354.22,309.5,347.11,273.67Z"/><path class="cls-20" d="M102.56,101.64c2,5.75,5.19,14.94,6.06,14.42l-5.52,11.13c8.63-4.42,11.19-15.62,21.07-16.27L118,87.39l-1.69,8.34-10.89,4.73-.83-1.28A4.83,4.83,0,0,0,102.56,101.64Z"/><path class="cls-21" d="M176.57,71.36a155.81,155.81,0,0,0-15,11.31c-4.23,3.82,4.62,22.25.5,30.5-2,4-9.27,9-10.94,10.51-.93.83-17.07-4.66-18.15-3.77-2.44,2,2.24,5.26-.35,7.42-4.24,3.54-8.72,9-11,10.25S105,151.38,98.79,150.08c8.6,8.6,53.13-.62,68.71-19.21,11-13.08,11.79-41.25,11.79-41.25L190,77.48S178.93,71.83,176.57,71.36Z"/></symbol></defs><title>Logo</title><g id="Luces"><use id="logo-3" data-name="logo" width="420.4" height="428.01" transform="translate(18.8 11.16) scale(2.05 2.05)" xlink:href="#logo"/></g></svg>
