<?xml version="1.0" encoding="UTF-8" standalone="no"?>
<!--
  ~ Copyright 2017 Banco Bilbao Vizcaya Argentaria, S.A.
  ~
  ~ Licensed under the Apache License, Version 2.0 (the "License");
  ~ you may not use this file except in compliance with the License.
  ~ You may obtain a copy of the License at
  ~
  ~     http://www.apache.org/licenses/LICENSE-2.0
  ~
  ~ Unless required by applicable law or agreed to in writing, software
  ~ distributed under the License is distributed on an "AS IS" BASIS,
  ~ WITHOUT WARRANTIES OR CONDITIONS OF ANY KIND, either express or implied.
  ~ See the License for the specific language governing permissions and
  ~ limitations under the License.
  -->

<svg
   xmlns:dc="http://purl.org/dc/elements/1.1/"
   xmlns:cc="http://creativecommons.org/ns#"
   xmlns:rdf="http://www.w3.org/1999/02/22-rdf-syntax-ns#"
   xmlns:svg="http://www.w3.org/2000/svg"
   xmlns="http://www.w3.org/2000/svg"
   xmlns:sodipodi="http://sodipodi.sourceforge.net/DTD/sodipodi-0.dtd"
   xmlns:inkscape="http://www.inkscape.org/namespaces/inkscape"
   viewBox="0 -256 1558 1472"
   id="svg3049"
   version="1.1"
   width="100%"
   height="100%">

  <path
     d="m 1558,437 q 0,-51 -37,-90 l -75,-75 q -38,-38 -91,-38 -54,0 -90,38 L 971,565 v -704 q 0,-52 -37.5,-84.5 Q 896,-256 843,-256 H 715 q -53,0 -90.5,32.5 Q 587,-191 587,-139 V 565 L 293,272 q -36,-38 -90,-38 -54,0 -90,38 l -75,75 q -38,38 -38,90 0,53 38,91 l 651,651 q 35,37 90,37 54,0 91,-37 l 651,-651 q 37,-39 37,-91 z"
     id="path3051" />
</svg>
